<svg width="14" height="14" viewBox="0 0 14 14" fill="none" xmlns="http://www.w3.org/2000/svg">
<path fill-rule="evenodd" clip-rule="evenodd" d="M7 0C3.13409 0 0 3.1341 0 7C0 10.8659 3.13409 14 7 14C10.8659 14 14 10.8659 14 7C14 3.1341 10.8659 0 7 0ZM10.0342 5.81637C10.0901 5.7525 10.1326 5.6781 10.1593 5.59756C10.186 5.51701 10.1963 5.43194 10.1896 5.34735C10.183 5.26276 10.1594 5.18036 10.1205 5.10498C10.0815 5.02962 10.0278 4.96281 9.96262 4.90848C9.89743 4.85416 9.82205 4.81343 9.74089 4.78867C9.65973 4.76392 9.57442 4.75565 9.49001 4.76434C9.40561 4.77305 9.3238 4.79853 9.24938 4.8393C9.17497 4.88009 9.10947 4.93534 9.05673 5.00181L6.32036 8.28481L4.90445 6.86828C4.78443 6.75235 4.6237 6.6882 4.45684 6.68966C4.28999 6.69111 4.13038 6.75804 4.01239 6.87603C3.8944 6.99401 3.82747 7.15362 3.82602 7.32046C3.82458 7.48732 3.88872 7.64807 4.00464 7.76809L5.91373 9.67718C5.97626 9.73967 6.05112 9.78845 6.13354 9.8204C6.21596 9.85235 6.30414 9.86679 6.39245 9.86278C6.48075 9.85877 6.56726 9.83639 6.64645 9.79711C6.72563 9.75781 6.79576 9.70244 6.85236 9.63455L10.0342 5.81637Z" fill="#9A2121"/>
</svg>
