<svg width="10" height="9" viewBox="0 0 10 9" fill="none" xmlns="http://www.w3.org/2000/svg">
<path fill-rule="evenodd" clip-rule="evenodd" d="M4.84474 0.494141C2.53128 0.494141 0.655762 2.36966 0.655762 4.68312C0.655762 6.99658 2.53128 8.8721 4.84474 8.8721C7.1582 8.8721 9.03372 6.99658 9.03372 4.68312C9.03372 2.36966 7.1582 0.494141 4.84474 0.494141ZM6.66048 3.9748C6.69391 3.93659 6.71936 3.89207 6.73534 3.84387C6.75131 3.79567 6.75749 3.74476 6.7535 3.69414C6.74951 3.64351 6.73543 3.5942 6.71211 3.5491C6.68878 3.504 6.65666 3.46402 6.61765 3.43151C6.57864 3.399 6.53353 3.37462 6.48496 3.35981C6.43639 3.34499 6.38534 3.34004 6.33483 3.34525C6.28432 3.35045 6.23536 3.3657 6.19083 3.39011C6.1463 3.41452 6.1071 3.44758 6.07554 3.48736L4.43803 5.45199L3.59071 4.60429C3.51889 4.53492 3.4227 4.49654 3.32285 4.49741C3.223 4.49828 3.12749 4.53833 3.05688 4.60893C2.98627 4.67954 2.94622 4.77505 2.94535 4.8749C2.94449 4.97475 2.98287 5.07094 3.05224 5.14277L4.19469 6.28522C4.23211 6.32261 4.27691 6.3518 4.32623 6.37092C4.37555 6.39005 4.42832 6.39868 4.48117 6.39628C4.53401 6.39388 4.58578 6.3805 4.63317 6.35698C4.68055 6.33347 4.72252 6.30034 4.75639 6.2597L6.66048 3.9748Z" fill="#213E9A"/>
</svg>
